<svg width="163" height="135" viewBox="0 0 163 135" fill="none" xmlns="http://www.w3.org/2000/svg">
<path d="M108.403 40.6975C107.373 41.1873 106.379 41.405 105.418 41.3506C104.458 41.2962 103.595 40.999 102.831 40.4591C102.074 39.8987 101.461 39.1073 100.994 38.0848C100.521 37.0483 100.32 36.061 100.393 35.1227C100.473 34.1638 100.804 33.2985 101.387 32.5265C101.963 31.7406 102.773 31.0994 103.816 30.603C104.859 30.1066 105.834 29.8815 106.74 29.9275C107.654 29.953 108.472 30.2454 109.196 30.8049C109.913 31.3504 110.508 32.1413 110.981 33.1778C111.039 33.3039 111.093 33.4402 111.143 33.5868C111.207 33.7269 111.252 33.8422 111.276 33.9328L102.796 37.9691L102.028 36.2883L108.182 33.359L107.903 34.6684C107.92 34.5582 107.917 34.4233 107.894 34.2636C107.879 34.0834 107.848 33.9443 107.804 33.8463C107.586 33.3701 107.311 33.0063 106.979 32.7551C106.661 32.4973 106.299 32.3455 105.894 32.2996C105.489 32.2537 105.074 32.332 104.648 32.5345C104.127 32.7827 103.742 33.1108 103.494 33.5187C103.253 33.9061 103.143 34.3766 103.162 34.9302C103.188 35.4634 103.348 36.0693 103.641 36.7482C103.936 37.3925 104.274 37.8963 104.658 38.2596C105.054 38.6163 105.493 38.8256 105.972 38.8874C106.451 38.9491 106.951 38.8559 107.473 38.6077C108.063 38.3269 108.513 37.9764 108.822 37.5564C109.139 37.1158 109.328 36.5991 109.392 36.0063L112.054 35.6345C111.976 36.7801 111.63 37.7799 111.018 38.634C110.413 39.4676 109.542 40.1554 108.403 40.6975Z" fill="#1E1E1E"/>
<path d="M93.3726 42.9913C93.6605 43.6216 94.008 44.053 94.415 44.2856C94.8155 44.5042 95.2903 44.4829 95.8392 44.2216C96.2234 44.0388 96.5175 43.805 96.7216 43.5203C96.933 43.215 97.047 42.8794 97.0635 42.5135C97.0938 42.141 97.0162 41.7516 96.8306 41.3454L94.1431 35.4627L96.7984 34.1989L101.214 43.8633L98.5583 45.1272L97.8864 43.6565C97.8341 44.3464 97.6418 44.9495 97.3096 45.4657C96.9711 45.9679 96.4656 46.379 95.7932 46.699C94.6679 47.2346 93.6736 47.3071 92.8103 46.9166C91.9606 46.5196 91.2735 45.7468 90.7487 44.5982L87.9268 38.4214L90.6851 37.1086L93.3726 42.9913Z" fill="#1E1E1E"/>
<path d="M79.5596 46.7534L78.9814 33.168L83.0419 31.2354L82.8103 53.8691L65.6747 39.5015L69.7108 37.5805L79.5596 46.7534Z" fill="#1E1E1E"/>
<path d="M64.7391 57.5663C64.8671 57.8464 65.0477 58.0589 65.2809 58.2037C65.5077 58.3345 65.7633 58.4004 66.0478 58.4014C66.3396 58.3819 66.6296 58.3035 66.9177 58.1664C67.3294 57.9704 67.6615 57.71 67.9141 57.3852C68.1602 57.0464 68.3126 56.6669 68.3713 56.2468C68.4236 55.8127 68.3441 55.3645 68.1329 54.9023L69.0382 56.0061C69.3197 56.6224 69.385 57.2223 69.2339 57.8057C69.0965 58.3827 68.8082 58.9036 68.369 59.3684C67.9436 59.8267 67.4426 60.193 66.8663 60.4673C66.2762 60.7481 65.673 60.8903 65.0565 60.8939C64.4399 60.8974 63.8715 60.7502 63.3511 60.4522C62.8381 60.1337 62.4312 59.6453 62.1304 58.987C61.7017 58.0486 61.685 57.1527 62.0804 56.2995C62.4758 55.4463 63.2636 54.7388 64.4437 54.1771C65.0475 53.8898 65.6046 53.7013 66.115 53.6118C66.6392 53.5158 67.1007 53.4838 67.4995 53.5156C67.8983 53.5475 68.2047 53.6148 68.4187 53.7176L68.9946 54.9782C68.4961 54.8744 67.9816 54.8635 67.451 54.9455C66.9342 55.021 66.4219 55.1795 65.9142 55.4212C65.5025 55.6171 65.1919 55.8332 64.9824 56.0693C64.7664 56.2914 64.6415 56.53 64.6076 56.7848C64.5673 57.0257 64.6111 57.2862 64.7391 57.5663ZM61.915 54.1274L60.0824 52.7488C60.4548 52.2475 60.9434 51.708 61.5482 51.1303C62.1466 50.5385 62.8849 50.0337 63.7631 49.6156C64.5727 49.2303 65.3476 49.0065 66.0876 48.9441C66.8276 48.8818 67.4816 48.9968 68.0495 49.2892C68.611 49.5676 69.0422 50.036 69.3429 50.6943L72.472 57.5434L69.899 58.7681L67.0291 52.4862C66.9076 52.22 66.764 52.0155 66.5985 51.8726C66.4266 51.7157 66.2226 51.6167 65.9866 51.5756C65.7644 51.5279 65.5238 51.5315 65.2649 51.5865C65.0061 51.6415 64.7325 51.7376 64.4444 51.8748C64.0053 52.0838 63.6091 52.332 63.256 52.6195C62.9028 52.9069 62.6141 53.1893 62.39 53.4665C62.1658 53.7437 62.0075 53.964 61.915 54.1274Z" fill="#1E1E1E"/>
<path d="M163 94.0603C163 116.671 139.504 135 110.52 135C81.5368 135 58.0409 116.671 58.0409 94.0603C58.0409 71.4499 81.5368 53.1206 110.52 53.1206C139.504 53.1206 163 71.4499 163 94.0603Z" fill="#1E1E1E"/>
<path fill-rule="evenodd" clip-rule="evenodd" d="M68.0284 90.7102C67.1497 91.2688 65.9938 90.9947 65.4465 90.0978L21.3819 17.8891C20.8347 16.9923 21.1033 15.8124 21.9819 15.2538C22.8605 14.6952 24.0165 14.9694 24.5637 15.8662L68.6283 88.075C69.1756 88.9718 68.907 90.1516 68.0284 90.7102Z" fill="#1E1E1E"/>
<path fill-rule="evenodd" clip-rule="evenodd" d="M0.942558 28.0652C0.421998 27.1519 0.725308 25.9809 1.62002 25.4496L42.8539 0.962265C43.7487 0.430926 44.896 0.740517 45.4165 1.65375C45.9371 2.56699 45.6338 3.73804 44.7391 4.26938L3.50514 28.7567C2.61042 29.288 1.46312 28.9784 0.942558 28.0652Z" fill="#1E1E1E"/>
<path d="M129.263 92.1471C129.263 99.3317 122.886 105.156 115.019 105.156C107.152 105.156 100.774 99.3317 100.774 92.1471C100.774 84.9625 107.152 79.1382 115.019 79.1382C122.886 79.1382 129.263 84.9625 129.263 92.1471Z" fill="#98A285"/>
</svg>
