<svg width="109" height="90" viewBox="0 0 109 90" fill="none" xmlns="http://www.w3.org/2000/svg">
<path d="M72.4901 27.1317C71.8018 27.4583 71.1366 27.6034 70.4944 27.5671C69.8521 27.5308 69.2754 27.3327 68.7641 26.9728C68.2578 26.5992 67.8484 26.0716 67.536 25.3899C67.2194 24.6989 67.0853 24.0407 67.1338 23.4152C67.1872 22.776 67.4088 22.199 67.7986 21.6844C68.1841 21.1604 68.7256 20.733 69.423 20.4021C70.1204 20.0712 70.7721 19.921 71.3783 19.9517C71.9894 19.9687 72.5367 20.1637 73.0205 20.5367C73.4999 20.9003 73.898 21.4276 74.2146 22.1186C74.2531 22.2026 74.2892 22.2935 74.3228 22.3913C74.3656 22.4846 74.3952 22.5615 74.4117 22.6219L68.7408 25.3128L68.2273 24.1923L72.3429 22.2394L72.1563 23.1123C72.1674 23.0389 72.1653 22.9489 72.15 22.8425C72.1396 22.7224 72.1195 22.6296 72.0895 22.5642C71.944 22.2468 71.7603 22.0043 71.5383 21.8368C71.3255 21.6649 71.0836 21.5637 70.8127 21.5331C70.5417 21.5026 70.264 21.5548 69.9795 21.6897C69.6308 21.8552 69.3735 22.0739 69.2077 22.3458C69.0468 22.6041 68.9727 22.9178 68.9854 23.2869C69.003 23.6423 69.11 24.0463 69.3062 24.4988C69.503 24.9284 69.7295 25.2642 69.9858 25.5064C70.2511 25.7443 70.5441 25.8838 70.8646 25.925C71.1851 25.9661 71.5197 25.904 71.8684 25.7385C72.263 25.5513 72.5637 25.3177 72.7705 25.0377C72.9822 24.7439 73.1093 24.3995 73.1516 24.0042L74.9316 23.7564C74.8794 24.5201 74.6486 25.1867 74.2392 25.7561C73.8348 26.3118 73.2517 26.7703 72.4901 27.1317Z" fill="#1E1E1E"/>
<path d="M62.4393 28.6609C62.6319 29.0811 62.8643 29.3688 63.1364 29.5238C63.4043 29.6695 63.7217 29.6553 64.0888 29.4812C64.3457 29.3592 64.5424 29.2034 64.6789 29.0136C64.8202 28.8101 64.8965 28.5864 64.9075 28.3424C64.9278 28.094 64.8759 27.8345 64.7518 27.5637L62.9546 23.6419L64.7302 22.7993L67.6827 29.2423L65.9071 30.0848L65.4578 29.1044C65.4228 29.5643 65.2942 29.9664 65.0721 30.3105C64.8457 30.6453 64.5077 30.9194 64.058 31.1328C63.3056 31.4898 62.6407 31.5381 62.0633 31.2778C61.4952 31.0131 61.0356 30.4979 60.6848 29.7322L58.7977 25.6143L60.6422 24.7391L62.4393 28.6609Z" fill="#1E1E1E"/>
<path d="M53.2024 31.1689L52.8158 22.1119L55.5311 20.8235L55.3763 35.9126L43.9175 26.3342L46.6164 25.0536L53.2024 31.1689Z" fill="#1E1E1E"/>
<path d="M43.2918 38.3775C43.3774 38.5642 43.4982 38.7059 43.6541 38.8024C43.8058 38.8896 43.9767 38.9335 44.167 38.9342C44.3621 38.9212 44.556 38.869 44.7487 38.7775C45.024 38.6469 45.2461 38.4733 45.415 38.2568C45.5796 38.0309 45.6815 37.7779 45.7207 37.4978C45.7557 37.2084 45.7025 36.9096 45.5613 36.6015L46.1667 37.3374C46.3549 37.7482 46.3986 38.1481 46.2975 38.5371C46.2057 38.9217 46.0129 39.269 45.7192 39.5789C45.4347 39.8844 45.0997 40.1286 44.7143 40.3115C44.3197 40.4987 43.9163 40.5935 43.504 40.5959C43.0918 40.5982 42.7116 40.5001 42.3637 40.3014C42.0206 40.0891 41.7485 39.7635 41.5474 39.3246C41.2607 38.699 41.2495 38.1018 41.5139 37.533C41.7783 36.9641 42.3051 36.4925 43.0943 36.118C43.498 35.9264 43.8706 35.8008 44.2119 35.7412C44.5624 35.6772 44.871 35.6558 45.1377 35.677C45.4044 35.6983 45.6093 35.7432 45.7524 35.8117L46.1375 36.6521C45.8042 36.5829 45.4601 36.5756 45.1053 36.6303C44.7597 36.6806 44.4171 36.7863 44.0776 36.9474C43.8023 37.078 43.5946 37.2221 43.4545 37.3795C43.3101 37.5276 43.2266 37.6866 43.2039 37.8565C43.1769 38.0171 43.2062 38.1907 43.2918 38.3775ZM41.4033 36.0849L40.1778 35.1658C40.4269 34.8316 40.7536 34.472 41.158 34.0868C41.5582 33.6923 42.0519 33.3557 42.6392 33.077C43.1806 32.8201 43.6987 32.6709 44.1936 32.6294C44.6884 32.5878 45.1257 32.6645 45.5055 32.8594C45.881 33.045 46.1693 33.3573 46.3705 33.7961L48.4629 38.3622L46.7423 39.1787L44.8232 34.9907C44.7419 34.8133 44.6459 34.677 44.5352 34.5817C44.4203 34.4771 44.2839 34.4111 44.1261 34.3836C43.9774 34.3519 43.8166 34.3543 43.6435 34.391C43.4703 34.4276 43.2874 34.4917 43.0947 34.5831C42.8011 34.7225 42.5362 34.888 42.3 35.0796C42.0639 35.2712 41.8708 35.4595 41.7209 35.6443C41.571 35.8291 41.4651 35.9759 41.4033 36.0849Z" fill="#1E1E1E"/>
<path d="M109 62.7069C109 77.7804 93.288 90 73.9063 90C54.5246 90 38.8126 77.7804 38.8126 62.7069C38.8126 47.6333 54.5246 35.4138 73.9063 35.4138C93.288 35.4138 109 47.6333 109 62.7069Z" fill="#1E1E1E"/>
<path fill-rule="evenodd" clip-rule="evenodd" d="M45.4913 60.4734C44.9038 60.8458 44.1308 60.6631 43.7648 60.0652L14.2983 11.926C13.9324 11.3282 14.112 10.5416 14.6995 10.1692C15.2871 9.79678 16.0601 9.97957 16.426 10.5774L45.8925 58.7166C46.2585 59.3145 46.0789 60.101 45.4913 60.4734Z" fill="#1E1E1E"/>
<path fill-rule="evenodd" clip-rule="evenodd" d="M0.630299 18.71C0.282195 18.1012 0.485022 17.3204 1.08333 16.9662L28.6569 0.64137C29.2552 0.287145 30.0225 0.493539 30.3706 1.10236C30.7187 1.71119 30.5158 2.49189 29.9175 2.84611L2.34393 19.171C1.74562 19.5252 0.978404 19.3188 0.630299 18.71Z" fill="#1E1E1E"/>
<path d="M86.4398 61.4315C86.4398 66.2212 82.1751 70.1041 76.9143 70.1041C71.6536 70.1041 67.3889 66.2212 67.3889 61.4315C67.3889 56.6418 71.6536 52.7589 76.9143 52.7589C82.1751 52.7589 86.4398 56.6418 86.4398 61.4315Z" fill="#98A285"/>
</svg>
